<svg width="76" height="77" xmlns="http://www.w3.org/2000/svg"><g fill="none" fill-rule="evenodd"><path fill="#FFF" d="M-157-743h1440v900H-157z"/><path d="M64.655 28.05l10.118-4.787" stroke="#3FF7A5" stroke-width="2.8" stroke-linecap="round" stroke-linejoin="round" stroke-dasharray="10.141,5.07,4.056,5.07,10.141,5.07"/><path stroke="#012138" stroke-width="3" fill="#012138" stroke-linecap="round" stroke-linejoin="round" d="M23.851 53.114l-7.007 16.602 8.555-.822 5.758 4.57 3.84-17.34zm26.325-.144l8.446 16.263-8.473.152-5.218 5.372-5.407-17.392z"/><path fill="#047BCD" d="M37.096 18.375l-11.457 3.099-8.419 8.339-2.98 11.201 3.183 11.202 8.418 8.339 11.255 3.099 11.254-3.005 8.419-8.34 3.183-11.295-2.98-11.295-8.419-8.34z"/><path d="M54.588 40.605c0 9.603-7.859 17.388-17.554 17.388-9.694 0-17.553-7.785-17.553-17.388 0-9.603 7.859-17.388 17.553-17.388 9.695 0 17.554 7.785 17.554 17.388z" stroke="#012138" stroke-width="2.427" stroke-linecap="round"/><path d="M19.596 16.245L9.743 1.543m1.185 24.774l-9.382-5.226m58.775-2.911L71.016 6.385" stroke="#3FF7A5" stroke-width="2.8" stroke-linecap="round" stroke-linejoin="round" stroke-dasharray="10.141,5.07,4.056,5.07,10.141,5.07"/><path d="M34 36.865c0-.491.187-.853.56-1.085l2.548-1.637c.142-.095.328-.143.56-.143.335 0 .64.095.917.286.277.191.415.43.415.717v13.015c0 .314-.148.556-.444.726-.296.17-.65.256-1.062.256-.412 0-.766-.085-1.062-.256-.296-.17-.444-.412-.444-.726V37.602l-.56.368a.825.825 0 0 1-.482.164c-.27 0-.496-.13-.676-.39a1.502 1.502 0 0 1-.27-.88z" fill="#FFF"/></g></svg>