<svg width="57" height="84" xmlns="http://www.w3.org/2000/svg" xmlns:xlink="http://www.w3.org/1999/xlink"><defs><path id="a" d="M.199 57.988h44.1V.35H.199v57.637z"/></defs><g fill="none" fill-rule="evenodd"><path fill="#FFF" d="M-573-727H867v900H-573z"/><path d="M20.053 22.523l-9.822-9.82M16.148 31.666l-7.74-4.004M14.278 39.673H-.943M27.979 17.243l-2.642-6.422M37.206 19.412V1.532" stroke="#3FF7A5" stroke-width="2.8" stroke-linecap="round" stroke-linejoin="round" stroke-dasharray="6.886,3.443,2.295,3.443,3.443,3.443"/><g transform="translate(11.836 25.385)"><mask id="b" fill="#fff"><use xlink:href="#a"/></mask><path d="M26.228 56.028a3.186 3.186 0 0 1-4.151 1.719L2.158 49.498a3.185 3.185 0 0 1-1.719-4.15L18.27 2.31A3.186 3.186 0 0 1 22.42.592L42.34 8.84a3.185 3.185 0 0 1 1.718 4.15l-17.83 43.038z" fill="#047BCD" mask="url(#b)"/></g><path d="M33.942 79.706a3.186 3.186 0 0 1-4.15 1.719L10.606 73.48a3.185 3.185 0 0 1-1.72-4.15l17.831-43.037a3.187 3.187 0 0 1 4.151-1.72l19.185 7.945a3.185 3.185 0 0 1 1.719 4.15l-17.83 43.038z" fill="#047BCD"/><path stroke="#001824" stroke-width="2" stroke-linecap="round" stroke-linejoin="round" d="M36.917 64.457l-2.977 7.187-19.348-8.012 14.063-33.945L48.003 37.7 36.917 64.457M24.849 73.55a2.802 2.802 0 1 1-5.177-2.145 2.802 2.802 0 0 1 5.177 2.145zM33.257 28.955l12.01 4.974M52.156 36.782L34.082 80.406M49.6 48.893l1.517-3.664"/><path d="M24.023 59.601c-3.201 2.971-4.521 2.074-2.933-1.995l6.53-16.734c1.587-4.068 6.256-6.206 10.374-4.75l.713.252c4.118 1.455 4.869 5.077 1.668 8.049L24.023 59.601z" fill="#FFF"/></g></svg>