<svg width="63" height="74" xmlns="http://www.w3.org/2000/svg"><g fill="none" fill-rule="evenodd"><path fill="#FFF" d="M-991-743H449v900H-991z"/><path d="M53.774 64.774c-12.301 12.301-32.247 12.301-44.548 0-12.301-12.302-12.301-32.246 0-44.548 12.301-12.301 32.247-12.301 44.548 0 12.301 12.302 12.301 32.246 0 44.548" fill="#047BCD"/><path d="M50.989 44.821C47.434 60.31 38.025 69 25.893 69 16.828 69 4 57.955 4 42.787 4 28.874 13.657 14 31.364 14c15.613 0 23.599 13.511 19.625 30.821" fill="#FFF"/><path d="M45.535 47c1.251-5.035-.024-10.607-3.824-14.55-5.72-5.933-14.992-5.933-20.711 0" stroke="#3FF7A5" stroke-width="6.212" stroke-linecap="round" stroke-linejoin="round" stroke-dasharray="20.708,10.354,8.282999999999999,10.354,20.708,10.354"/><path d="M31 43l14 4" fill="#047BCD"/><path d="M31 42l8 2" stroke="#047BCD" stroke-width="4.283"/><path fill="#047BCD" d="M37 48l8-2.253L39.033 40zM30.267 44.908a3 3 0 1 1 1.467-5.817 3 3 0 0 1-1.467 5.817"/><path d="M31 17C17.215 17 6 28.215 6 42s11.215 25 25 25 25-11.215 25-25-11.215-25-25-25m0 1.866c12.776 0 23.134 10.357 23.134 23.134 0 12.777-10.358 23.134-23.134 23.134C18.223 65.134 7.866 54.777 7.866 42c0-12.777 10.357-23.134 23.134-23.134" fill="#012138"/><path d="M4 14C8.32 6.744 19.12.603 31 2.278M10 14c3.29-3.468 10.968-6.441 17-5.946" stroke="#3FF7A5" stroke-width="2.8" stroke-linecap="round" stroke-linejoin="round" stroke-dasharray="6.886,3.443,2.295,3.443,3.443,3.443"/></g></svg>